<?xml version="1.0" encoding="UTF-8"?>
<svg width="80px" height="80px" viewBox="0 0 80 80" version="1.1" xmlns="http://www.w3.org/2000/svg" xmlns:xlink="http://www.w3.org/1999/xlink">
    <title>Logo</title>
    <g id="Main" stroke="none" stroke-width="1" fill="none" fill-rule="evenodd">
        <g id="Login" transform="translate(-680.000000, -387.000000)">
            <g transform="translate(545.000000, 347.000000)" id="Logo">
                <g transform="translate(135.000000, 40.000000)">
                    <circle id="Oval" fill="#212121" cx="40" cy="40" r="40"></circle>
                    <g id="Mark" transform="translate(19.000000, 20.000000)" fill-rule="nonzero">
                        <path d="M20.0430769,10.9189744 L27.7558974,10.9189744 C28.1663454,10.9155134 28.5756336,10.963057 28.974359,11.0605128 C28.8086614,10.8650966 28.621501,10.6889457 28.4164103,10.5353846 C27.8434188,10.1087179 27.0762393,9.89470085 26.1148718,9.89333333 L18.4020513,9.89333333 L16.7958974,18.8882051 L18.6194872,18.8882051 L20.0430769,10.9189744 Z" id="Path" fill="#F8504D"></path>
                        <polygon id="Path" fill="#F8504D" points="19.5302564 26.7569231 15.4071795 26.7569231 13.265641 38.9087179 4.48820513 38.9087179 4.30769231 39.934359 14.9066667 39.934359 17.0482051 27.7825641 20.0861538 27.7825641"></polygon>
                        <path d="M39.2923077,21.7066667 C40.9155556,19.4762393 41.7272941,16.7193162 41.7272941,13.4358974 C41.7334835,12.0098285 41.4797633,10.5945561 40.9784615,9.25948718 C40.4760089,7.93713483 39.6904835,6.7406438 38.6769231,5.75384615 C37.9246476,5.02434062 37.0646878,4.41482769 36.1271795,3.94666667 C36.4461833,4.18785513 36.7496894,4.44888403 37.0358974,4.72820513 C38.0494579,5.71500277 38.8349833,6.9114938 39.3374359,8.23384615 C39.8387376,9.56891507 40.0924579,10.9841874 40.0861538,12.4102564 C40.0861538,15.6923077 39.2745299,18.4492308 37.6512821,20.6810256 C36.0280342,22.9128205 33.4673504,24.5634188 29.9692308,25.6328205 L37.4625641,38.2666667 L37.3558974,38.9087179 L27.2,38.9087179 L27.7558974,39.934359 L38.9969231,39.934359 L39.1035897,39.2923077 L31.6102564,26.6584615 C35.1124786,25.5876923 37.6731624,23.937094 39.2923077,21.7066667 Z" id="Path" fill="#F8504D"></path>
                        <path d="M34.6892308,37.4728205 L23.4482051,37.4728205 L16.8635897,25.3210256 L12.7405128,25.3210256 L10.6071795,37.4728205 L0,37.4728205 L6.58461538,5.83009424e-15 L24.8923077,5.83009424e-15 C27.0338462,5.83009424e-15 28.8895726,0.294017094 30.4594872,0.882051282 C31.9175349,1.40199267 33.2497046,2.22324104 34.3692308,3.29230769 C35.3827912,4.27910534 36.1683166,5.47559637 36.6707692,6.79794872 C37.1720709,8.13301764 37.4257912,9.54829001 37.4196018,10.974359 C37.4196018,14.2564103 36.6078632,17.0133333 34.9846154,19.2451282 C33.3613675,21.4769231 30.8006838,23.1275214 27.3025641,24.1969231 L34.7958974,36.8307692 L34.6892308,37.4728205 Z M15.7353846,8.4574359 L14.1292308,17.4523077 L21.9446154,17.4523077 C22.7947964,17.3955151 23.6155523,17.1183951 24.3261538,16.6482051 C25.0028141,16.2047455 25.5849524,15.6316703 26.0389744,14.9620513 C26.4793621,14.3174369 26.7804733,13.588063 26.9230769,12.8205128 C27.0672834,12.1207548 27.0490377,11.397241 26.8697436,10.705641 C26.687468,10.0585365 26.2912017,9.49233854 25.745641,9.09948718 C25.1726496,8.67282051 24.4054701,8.45880342 23.4441026,8.4574359 L15.7353846,8.4574359 Z" id="Shape" fill="#00AADC"></path>
                    </g>
                </g>
            </g>
        </g>
    </g>
</svg>