<svg id="Layer_1" data-name="Layer 1" xmlns="http://www.w3.org/2000/svg" viewBox="0 0 203.42 194.68"><defs><style>.cls-1{fill:#f8504d;}.cls-2{fill:#00aadc;}</style></defs><path class="cls-1" d="M252,211.89h37.6a23.76,23.76,0,0,1,5.94.69,16.91,16.91,0,0,0-2.72-2.56q-4.19-3.12-11.22-3.13H244l-7.83,43.85h8.89Z" transform="translate(-154.29 -158.66)"/><polygon class="cls-1" points="95.21 130.44 75.11 130.44 64.67 189.68 21.88 189.68 21 194.68 72.67 194.68 83.11 135.44 97.92 135.44 95.21 130.44"/><path class="cls-1" d="M345.84,264.48q11.87-16.31,11.87-40.32a57.32,57.32,0,0,0-3.65-20.36,47.29,47.29,0,0,0-11.22-17.09,49.74,49.74,0,0,0-12.43-8.81,47.31,47.31,0,0,1,15.65,20.9,57.32,57.32,0,0,1,3.65,20.36q0,24-11.87,40.32t-37.45,24.14l36.53,61.59-.52,3.13H286.89l2.71,5h54.8l.52-3.13-36.53-61.59Q334,280.79,345.84,264.48Z" transform="translate(-154.29 -158.66)"/><path class="cls-2" d="M323.4,341.34H268.6L236.5,282.1H216.4L206,341.34H154.29l32.1-182.68h89.25q15.66,0,27.14,4.3a53.69,53.69,0,0,1,19.06,11.75,47.29,47.29,0,0,1,11.22,17.09,57.32,57.32,0,0,1,3.65,20.36q0,24-11.87,40.32t-37.45,24.14l36.53,61.59ZM231,199.89l-7.83,43.85h38.1a24,24,0,0,0,11.61-3.92,29.84,29.84,0,0,0,8.35-8.22,27.39,27.39,0,0,0,4.31-10.44,22.87,22.87,0,0,0-.26-10.31A14.53,14.53,0,0,0,279.8,203q-4.19-3.12-11.22-3.13Z" transform="translate(-154.29 -158.66)"/></svg>